PathFileType	4	(X/Y/Z)	./resultDataOpenSim/trcMotMarkerGrf/sub09/qtm-05-05.trc
DataRate	CameraRate	NumFrames	NumMarkers	Units	OrigDataRate	OrigDataStartFrame	OrigNumFrames
250.000000	250.000000	8	24	m	250.000000	456	521
Frame#	Time	L.Toe.Tip			R.Toe.Tip			L.Ankle.Lat			R.Ankle.Lat			L.Ankle.Med			R.Ankle.Med			L.Heel			R.Heel			L.Knee.Lat			R.Knee.Lat			L.Knee.Med			R.Knee.Med			L.Thigh.Upper			R.Thigh.Upper			L.ASIS			R.ASIS			V.Sacral			L.Acromium			R.Acromium			C7			L.Elbow			R.Elbow			L.Wrist.Lat			R.Wrist.Lat
		X1	Y1	Z1	X2	Y2	Z2	X3	Y3	Z3	X4	Y4	Z4	X5	Y5	Z5	X6	Y6	Z6	X7	Y7	Z7	X8	Y8	Z8	X9	Y9	Z9	X10	Y10	Z10	X11	Y11	Z11	X12	Y12	Z12	X13	Y13	Z13	X14	Y14	Z14	X15	Y15	Z15	X16	Y16	Z16	X17	Y17	Z17	X18	Y18	Z18	X19	Y19	Z19	X20	Y20	Z20	X21	Y21	Z21	X22	Y22	Z22	X23	Y23	Z23	X24	Y24	Z24

456	1.82	1.668492	0.11978622	0.067506613	1.0210333	0.039683072	0.17833859	1.5140705	0.093341348	0.035173032	0.87998145	0.08261394	0.21169543	1.5344119	0.11905116	0.12756935	0.9099	0.1205028	0.12426745	1.4690993	0.031450493	0.085510479	0.81004032	0.080253009	0.15993891	1.3696624	0.48375375	-0.0017486011	1.1027844	0.48762052	0.28128338	1.3688253	0.4762095	0.12544776	1.0913125	0.48131273	0.1545963	1.2045627	0.86604645	-0.038675949	1.1552009	0.88751156	0.33204508	1.2706101	0.95962431	0.024987566	1.2655397	0.96894064	0.26624213	1.0973521	1.0111929	0.13110433	1.2300955	1.4159203	-0.030145671	1.216853	1.4300432	0.30095332	1.1564218	1.4692956	0.13465273	1.0714702	1.0850152	-0.094485184	1.1037736	1.0768561	0.39594555	1.1807723	0.85124039	-0.14752967	1.3065175	0.88650436	0.3881229
457	1.824	1.673188	0.11877316	0.067333315	1.0211847	0.039804625	0.1783788	1.5185616	0.092308715	0.035953982	0.88077462	0.083891453	0.21220433	1.5395459	0.11836958	0.1281372	0.91072655	0.12150672	0.12478694	1.4740127	0.030345666	0.087461684	0.81059903	0.082109399	0.1606004	1.3748742	0.48323361	-0.0015816186	1.1071831	0.48691908	0.28154414	1.3745679	0.47585292	0.12542903	1.09542	0.48069262	0.15465908	1.2101046	0.86530248	-0.038962407	1.1602067	0.88666882	0.3316958	1.2759586	0.95881685	0.024477274	1.2717831	0.96779942	0.26566157	1.1027331	1.0102723	0.13071907	1.2349137	1.4150735	-0.030483551	1.221516	1.429186	0.30065502	1.1608337	1.4684413	0.13402942	1.0766287	1.0839259	-0.094746926	1.1085628	1.0760148	0.39529905	1.1860396	0.85023141	-0.1475911	1.3107062	0.88510498	0.38848357
458	1.828	1.6773411	0.11709659	0.067176375	1.0213379	0.039900613	0.17848386	1.5224015	0.091034548	0.03681366	0.88158313	0.08521503	0.21275314	1.5442065	0.11747097	0.12875487	0.91162646	0.12256715	0.12532854	1.4780537	0.029351946	0.089050931	0.81122978	0.084075984	0.1612804	1.3804225	0.48282645	-0.0014716726	1.1117066	0.48616849	0.28183389	1.3807446	0.47565966	0.12542393	1.0997716	0.48006847	0.15479613	1.2155346	0.86462563	-0.03936261	1.1650672	0.8858105	0.33137136	1.2813341	0.95803628	0.023930893	1.27773	0.9667682	0.26512663	1.1081348	1.0093715	0.13038409	1.2397397	1.4142512	-0.030833749	1.2262073	1.4283406	0.3003502	1.1653657	1.4675765	0.13349556	1.0818363	1.0828389	-0.094991966	1.1133683	1.0751971	0.39464517	1.1913628	0.84922884	-0.14764888	1.3148686	0.88369987	0.38884536
459	1.832	1.6809943	0.1148534	0.067069862	1.0214999	0.039973525	0.17865462	1.5256745	0.08954346	0.037717103	0.88241287	0.086597475	0.21334245	1.5483853	0.11633695	0.12941009	0.9126039	0.12369074	0.12589082	1.4813068	0.028421737	0.090366185	0.81194013	0.08615253	0.16198214	1.3862208	0.48246899	-0.0014107507	1.1164372	0.48548645	0.28207352	1.3872879	0.47562944	0.12542673	1.1043303	0.47943768	0.15498491	1.2208457	0.86402312	-0.039874563	1.169789	0.8849295	0.33106822	1.2867466	0.95729234	0.023356412	1.2834445	0.96582906	0.26462867	1.1135506	1.0084911	0.13008196	1.2445629	1.4134599	-0.03119654	1.2309339	1.4275088	0.30003451	1.170081	1.4666919	0.13312352	1.0870884	1.0817605	-0.095237354	1.1181753	1.0743979	0.39397608	1.1967388	0.84822975	-0.14770064	1.3190077	0.88229231	0.38920608
460	1.836	1.6841813	0.11215543	0.067047285	1.0216782	0.040031418	0.17887974	1.5284648	0.087870461	0.038631044	0.88328292	0.088049412	0.21396424	1.5520549	0.11493423	0.13009558	0.91367147	0.12488477	0.12647622	1.4838622	0.027518735	0.091532139	0.81273636	0.088348311	0.16270432	1.3921191	0.48209157	-0.0013730776	1.1214718	0.48490119	0.2821887	1.3940924	0.47573617	0.12541925	1.1090323	0.47877072	0.15520095	1.226037	0.86350536	-0.040486302	1.1746493	0.88402199	0.3307357	1.2922129	0.95659991	0.022752913	1.2890731	0.9649307	0.26413241	1.1189721	1.0076415	0.12978938	1.2493825	1.4127051	-0.031568959	1.2356993	1.4266874	0.29970317	1.1749403	1.4658108	0.13287831	1.0923918	1.080701	-0.095473908	1.1229839	1.0736169	0.39328671	1.2021637	0.84723279	-0.14774335	1.3231184	0.8808842	0.38956857
461	1.84	1.6869334	0.10908293	0.067142591	1.0218727	0.040078045	0.17914476	1.5308528	0.086057722	0.039526686	0.8842126	0.089579508	0.21461553	1.5552023	0.11322961	0.13082038	0.91484596	0.12615575	0.12708776	1.4857778	0.026643668	0.092588936	0.81362552	0.090679587	0.16343657	1.3980021	0.4816342	-0.0013487792	1.1267917	0.48433126	0.28218489	1.4010389	0.47593104	0.12537891	1.1137964	0.47803789	0.15542342	1.2311199	0.86307838	-0.041171448	1.180394	0.88307052	0.33027811	1.2977409	0.95597395	0.022121211	1.294712	0.96404231	0.26361797	1.1244028	1.0068291	0.12949171	1.2542014	1.4119851	-0.03195194	1.240502	1.4258762	0.29935658	1.1798091	1.464967	0.13262777	1.0977482	1.0796632	-0.095692969	1.12779	1.0728542	0.39257264	1.2076368	0.84624496	-0.14777412	1.327197	0.87947433	0.3899379
462	1.844	1.6893027	0.10563477	0.067390079	1.0220839	0.040125492	0.17942382	1.5329259	0.084163419	0.040384616	0.88520998	0.091202209	0.21528644	1.5578648	0.11124144	0.13161012	0.91613921	0.12750907	0.12772319	1.4871172	0.025809193	0.093512302	0.8146148	0.093155778	0.16415931	1.4038293	0.48106093	-0.0013538767	1.1322355	0.48369326	0.28216285	1.4080162	0.47615847	0.12528287	1.1185791	0.4772332	0.15565278	1.23612	0.86273976	-0.041898615	1.1878737	0.88204519	0.32960638	1.3033256	0.955423	0.021467279	1.3003994	0.96316215	0.26308774	1.1298585	1.0060363	0.12919734	1.2590178	1.4112941	-0.03235	1.2453424	1.425081	0.29899587	1.1845523	1.464171	0.13224715	1.1031497	1.0786439	-0.095895426	1.1325774	1.0721087	0.3918304	1.2131574	0.84528087	-0.14779011	1.3312455	0.87805994	0.39031592
463	1.848	1.6913871	0.10173125	0.067810705	1.0223174	0.040198917	0.17967628	1.5348005	0.082283547	0.041192946	0.88625715	0.092916111	0.21594361	1.5601634	0.10909632	0.13247434	0.91755403	0.12894804	0.12837662	1.488012	0.025069299	0.094272151	0.81570904	0.095773116	0.16485419	1.409606	0.48036814	-0.0014147677	1.1376244	0.48299071	0.28224267	1.4149351	0.47636584	0.12510776	1.1234269	0.47636573	0.15591436	1.2410701	0.86247877	-0.042638566	1.1969817	0.88095088	0.32874626	1.3089494	0.95494996	0.020804086	1.306131	0.96230113	0.26254692	1.1353535	1.0052413	0.12893541	1.2638261	1.410631	-0.032765143	1.2502235	1.4243069	0.29861632	1.1891805	1.4634034	0.1317596	1.1085861	1.0776418	-0.096085296	1.137329	1.0713787	0.39105614	1.2187231	0.84435638	-0.14778975	1.3352648	0.87664249	0.39069855
